<?xml version="1.0" encoding="UTF-8" standalone="no"?>
<!-- Created with Inkscape (http://www.inkscape.org/) -->

<svg
   xmlns:dc="http://purl.org/dc/elements/1.1/"
   xmlns:cc="http://creativecommons.org/ns#"
   xmlns:rdf="http://www.w3.org/1999/02/22-rdf-syntax-ns#"
   xmlns:svg="http://www.w3.org/2000/svg"
   xmlns="http://www.w3.org/2000/svg"
   xmlns:sodipodi="http://sodipodi.sourceforge.net/DTD/sodipodi-0.dtd"
   xmlns:inkscape="http://www.inkscape.org/namespaces/inkscape"
   width="100pt"
   height="100pt"
   viewBox="0 0 35.277779 35.277777"
   version="1.1"
   id="svg8"
   inkscape:version="0.92.2 (5c3e80d, 2017-08-06)"
   sodipodi:docname="logo.svg">
  <defs
     id="defs2" />
  <sodipodi:namedview
     id="base"
     pagecolor="#ffffff"
     bordercolor="#666666"
     borderopacity="1.0"
     inkscape:pageopacity="0.0"
     inkscape:pageshadow="2"
     inkscape:zoom="2.8"
     inkscape:cx="244.30647"
     inkscape:cy="23.676674"
     inkscape:document-units="mm"
     inkscape:current-layer="g943"
     showgrid="false"
     inkscape:window-width="2304"
     inkscape:window-height="1202"
     inkscape:window-x="-11"
     inkscape:window-y="-11"
     inkscape:window-maximized="1"
     units="pt" />
  <metadata
     id="metadata5">
    <rdf:RDF>
      <cc:Work
         rdf:about="">
        <dc:format>image/svg+xml</dc:format>
        <dc:type
           rdf:resource="http://purl.org/dc/dcmitype/StillImage" />
        <dc:title></dc:title>
      </cc:Work>
    </rdf:RDF>
  </metadata>
  <g
     inkscape:label="Layer 1"
     inkscape:groupmode="layer"
     id="layer1"
     transform="translate(0,-261.72223)">
    <g
       id="g943"
       style="stroke:none;stroke-width:8.03001785;stroke-miterlimit:4;stroke-dasharray:none;stroke-opacity:1"
       transform="matrix(0.56039726,0,0,0.56039726,23.583558,28.853578)">
      <path
         inkscape:connector-curvature="0"
         id="path918"
         d="m 2.3578146,441.4656 c 0,0 -2.41492564,9.7662 0.077885,17.72688 2.4928199,7.96068 6.8552598,14.27998 8.5690814,15.10067 1.713811,0.82068 4.673361,-6.1098 4.743587,-11.75452 0.07022,-5.64473 -0.692745,-10.56822 -4.042484,-15.3282 -3.3497302,-4.75999 -4.7519472,-5.58069 -6.3099619,-5.90896 -1.5580147,-0.32828 -3.0381261,0.16413 -3.0381261,0.16413 z"
         style="fill:#82c43b;fill-opacity:1;stroke:#000000;stroke-width:1.60153317;stroke-linecap:butt;stroke-linejoin:miter;stroke-miterlimit:4;stroke-dasharray:none;stroke-opacity:1"
         sodipodi:nodetypes="csszscc" />
      <path
         id="path922"
         d="m 2.3578146,441.4656 c 1.2227216,5.77418 5.4922706,7.04813 6.2134822,10.52106 0.6897536,3.87554 2.6221052,18.74316 2.6474552,21.33386 1.740739,0.30584 4.669245,-5.81373 4.333074,-12.30934 -0.33617,-6.49561 -1.315703,-9.47649 -3.895055,-13.82669 -2.5793416,-4.35018 -5.3214204,-6.47056 -9.2989564,-5.71889 z"
         style="fill:#8ac43b;fill-opacity:1;stroke:none;stroke-width:2.40229964;stroke-linecap:butt;stroke-linejoin:miter;stroke-miterlimit:4;stroke-dasharray:none;stroke-opacity:1"
         inkscape:connector-curvature="0"
         sodipodi:nodetypes="ccczzc" />
      <path
         sodipodi:nodetypes="czczcc"
         inkscape:connector-curvature="0"
         id="path920"
         d="m 2.3578146,441.4656 c 0,0 3.5277776,5.65583 5.4168686,10.7646 1.8890892,5.1088 3.3469708,22.22708 3.3469708,22.22708 0,0 -0.736864,-17.25519 -3.0751298,-23.38671 -2.3382682,-6.13151 -5.0187228,-9.71442 -5.0187228,-9.71442 z"
         style="fill:#5ba01d;fill-opacity:1;stroke:none;stroke-width:2.40229964;stroke-linecap:butt;stroke-linejoin:miter;stroke-miterlimit:4;stroke-dasharray:none;stroke-opacity:1" />
      <path
         inkscape:connector-curvature="0"
         id="path918-9"
         d="m 4.5521777,441.47773 c 0,0 -9.5044908,-1.26124 -15.5964637,-6.6538 -6.091979,-5.39254 -10.043434,-12.0051 -10.130916,-13.98623 -0.08749,-1.98115 7.119549,-2.30487 12.1211495,-0.27913 5.0016007,2.0258 9.05829166,4.59907 12.0110675,9.64232 2.952777,5.04324 3.1558804,6.71953 2.8671333,8.36554 -0.2887383,1.64602 -1.2719706,2.9113 -1.2719706,2.9113 z"
         style="fill:#82c43b;fill-opacity:1;stroke:#000000;stroke-width:1.60153317;stroke-linecap:butt;stroke-linejoin:miter;stroke-miterlimit:4;stroke-dasharray:none;stroke-opacity:1"
         sodipodi:nodetypes="csszscc" />
      <path
         id="path922-5"
         d="m 4.5521777,441.47773 c -4.63595694,-3.33871 -4.17466782,-7.9883 -6.9682545,-9.98252 -3.1601394,-2.11279 -15.5482332,-9.51987 -17.8223912,-10.50596 0.376327,-1.81644 6.857063,-2.41071 12.4578703,0.32837 5.6008272,2.73907 7.86487648,4.80341 10.7422596,8.94093 2.8773619,4.13756 3.7289765,7.60684 1.5905355,11.21916 z"
         style="fill:#8ac43b;fill-opacity:1;stroke:none;stroke-width:2.40229964;stroke-linecap:butt;stroke-linejoin:miter;stroke-miterlimit:4;stroke-dasharray:none;stroke-opacity:1"
         inkscape:connector-curvature="0"
         sodipodi:nodetypes="ccczzc" />
      <path
         sodipodi:nodetypes="czczcc"
         inkscape:connector-curvature="0"
         id="path920-9"
         d="m 5.5902206,441.8045 c 0,0 -3.676343,-5.54982 -7.4785326,-9.29352 -3.8021829,-3.74373 -18.350156,-11.52173 -18.350156,-11.52173 0,0 14.9361717,7.12343 19.47317926,11.68606 4.53701834,4.56263 6.70057334,8.51438 6.70057334,8.51438 z"
         style="fill:#5ba01d;fill-opacity:1;stroke:none;stroke-width:2.40229964;stroke-linecap:butt;stroke-linejoin:miter;stroke-miterlimit:4;stroke-dasharray:none;stroke-opacity:1" />
    </g>
    <path
       style="fill:#c4843b;fill-opacity:1;stroke:#000000;stroke-width:0.89749479;stroke-linecap:butt;stroke-linejoin:miter;stroke-miterlimit:4;stroke-dasharray:none;stroke-opacity:1"
       d="m 4.2004141,289.61158 c 0,0 1.5969655,2.66725 7.9069279,3.61104 6.309965,0.9438 14.255843,-8.37102 15.619107,-9.8893 1.363262,-1.51827 0.07791,-4.30862 0.07791,-4.30862 0,0 0.701105,-1.0669 0.07791,-2.21585 -0.623206,-1.14896 -1.830667,-1.10792 -1.830667,-1.10792 0,0 0.11685,-0.90277 -0.428456,-1.60036 -0.545303,-0.69758 -1.246412,-0.65655 -1.246412,-0.65655 0,0 -1.596966,-1.23103 -2.999181,-1.23103 -1.402212,0 -2.960228,0.94379 -2.960228,0.94379 0,0 -5.803609,2.09276 -9.5817981,5.78586 -3.7781866,3.6931 -4.6350946,10.66894 -4.6350946,10.66894 z"
       id="path826"
       inkscape:connector-curvature="0" />
    <path
       style="fill:#a0621d;fill-opacity:1;stroke:none;stroke-width:0.07915404px;stroke-linecap:butt;stroke-linejoin:miter;stroke-opacity:1"
       d="m 22.324834,286.22136 c -2.165071,1.93103 -4.557176,4.10332 -7.867959,4.84193 -3.810336,0.77965 -4.5755517,0.36148 -8.1985488,-0.69429 0.8612803,0.65728 5.0551758,2.56602 7.7394308,2.05578 5.408742,-1.02812 11.521005,-7.66026 12.884269,-9.17855 0.849599,-0.9462 0.670397,-2.38601 0.41481,-3.33703 -0.118815,1.24782 -2.806935,4.38113 -4.972002,6.31216 z"
       id="path828"
       inkscape:connector-curvature="0"
       sodipodi:nodetypes="zccsscz" />
    <path
       style="fill:#a0621d;fill-opacity:1;stroke:none;stroke-width:0.07915404px;stroke-linecap:butt;stroke-linejoin:miter;stroke-opacity:1"
       d="m 26.716306,276.43963 c 0.345174,2.44586 -5.237564,7.64152 -9.245415,10.40041 -2.647476,1.82246 -5.527795,2.78692 -10.6302957,2.86898 0,0 4.0086137,0.39338 8.6242357,-0.91972 2.34502,-0.66714 7.196085,-4.28809 8.598299,-5.64223 1.402208,-1.35413 3.31079,-4.06239 3.31079,-5.00618 0,-0.43132 0.014,-0.28938 -0.06849,-0.67292 -0.08249,-0.38353 -0.51539,-0.88149 -0.589124,-1.02834 z"
       id="path846"
       inkscape:connector-curvature="0"
       sodipodi:nodetypes="cscssszc" />
    <path
       style="fill:#a0621d;fill-opacity:1;stroke:none;stroke-width:0.07915404px;stroke-linecap:butt;stroke-linejoin:miter;stroke-opacity:1"
       d="m 24.619924,274.30069 c -0.176003,1.7392 -3.472497,5.13959 -5.805352,7.55037 -2.537832,2.62259 -10.9449472,6.68869 -10.9449472,6.68869 0,0 9.1142902,-3.15973 12.4640222,-6.23732 3.349734,-3.07757 4.946684,-6.11405 4.946684,-6.11405 0,0 0.425248,-1.14152 -0.660407,-1.88769 z"
       id="path848"
       inkscape:connector-curvature="0"
       sodipodi:nodetypes="cscscc" />
    <path
       style="fill:#a0621d;fill-opacity:1;stroke:none;stroke-width:0.07915404px;stroke-linecap:butt;stroke-linejoin:miter;stroke-opacity:1"
       d="m 22.085189,273.08209 c -1.71342,0.61125 -4.232481,1.74815 -6.045466,3.60854 -2.99918,3.07758 -8.1405683,9.52011 -8.6079727,10.3408 0,0 7.2836637,-7.26322 9.5817357,-9.10977 2.298074,-1.84655 4.946786,-3.85719 6.855354,-3.85719 0,0 -0.810901,-0.62296 -1.783651,-0.98238 z"
       id="path850"
       inkscape:connector-curvature="0"
       sodipodi:nodetypes="cscccc" />
    <path
       style="fill:#a0621d;fill-opacity:1;stroke:none;stroke-width:0.07915404px;stroke-linecap:butt;stroke-linejoin:miter;stroke-opacity:1"
       d="m 17.456137,274.43809 c 0,0 -1.735298,0.78067 -4.079114,2.06891 -2.550911,2.85586 -6.7092365,7.75452 -7.4549222,10.58824 0,0 5.8425682,-8.82236 10.9840202,-12.14614 0.281327,-0.18188 0.336334,-0.36336 0.550016,-0.51101 z"
       id="path852"
       inkscape:connector-curvature="0"
       sodipodi:nodetypes="ccccc" />
  </g>
</svg>
