<?xml version="1.0" encoding="UTF-8" standalone="no"?>
<svg
   xmlns:dc="http://purl.org/dc/elements/1.1/"
   xmlns:cc="http://creativecommons.org/ns#"
   xmlns:rdf="http://www.w3.org/1999/02/22-rdf-syntax-ns#"
   xmlns:svg="http://www.w3.org/2000/svg"
   xmlns="http://www.w3.org/2000/svg"
   viewBox="0 0 450 366"
   height="366"
   width="450"
   id="svg2"
   version="1.1">
  <metadata
     id="metadata8">
    <rdf:RDF>
      <cc:Work
         rdf:about="">
        <dc:format>image/svg+xml</dc:format>
        <dc:type
           rdf:resource="http://purl.org/dc/dcmitype/StillImage" />
        <dc:title></dc:title>
      </cc:Work>
    </rdf:RDF>
  </metadata>
  <defs
     id="defs6" />
  <path
     id="path4506"
     d="M 125.60351,365.46524 C 87.418032,362.31178 40.700412,347.25687 12.860182,329.13333 c -5.5,-3.58041 -5.5,-3.58041 6.5,-2.95192 38.10917,1.99592 78.218578,-9.11854 110.972768,-30.75096 11.1149,-7.3408 11.92858,-8.83023 4.84261,-8.8643 -27.33223,-0.13142 -61.382518,-24.08 -74.264708,-52.23259 -4.74115,-10.36122 -4.82363,-11.1114 -1.13256,-10.30071 4.98604,1.09512 22.96789,0.78169 30.47345,-0.53117 6.891558,-1.20545 6.891558,-1.20545 -2.5,-4.4068 -35.35989,-12.05328 -58.62277,-40.92699 -62.82992,-77.98404 -1.23528,-10.88043 -1.59501,-10.51204 6.66571,-6.8259 8.60618,3.84029 33.27265,9.64617 33.27265,7.83156 0,-0.10377 -2.98885,-2.63599 -6.64188,-5.62716 -32.08744,-26.27383 -42.34393,-74.341998 -23.7247,-111.188498 2.9739,-5.88518 2.80494,-5.91109 8.86658,1.36008 26.37929,31.64299 68.949348,60.34822 110.999938,74.847878 25.01843,8.62671 71.50006,17.06313 71.50006,12.97725 0,-0.71487 -0.51134,-5.28701 -1.13632,-10.16032 -10.50828,-81.939178 91.03378,-133.310177 152.88185,-77.344228 5.00716,4.53095 5.43887,4.71499 9.5,4.05001 8.25648,-1.35195 30.92621,-9.44916 41.90328,-14.96707 13.16438,-6.6174306 12.57223,-6.7952046 8.50787,2.55424 -6.1166,14.0703 -17.24656,27.97718 -29.57694,36.95639 -3.30622,2.40765 -5.9142,4.46947 -5.79552,4.58183 1.73892,1.64624 34.153,-7.04014 49.15586,-13.17287 7.9777,-3.26104 -26.77924,34.66335 -40.18325,43.84521 -3.24316,2.2216 -3.24316,2.2216 -3.25341,13.721598 -0.1377,154.4853 -128.96877,273.57363 -282.26009,260.9144 z"
     style="fill:#ffffff" />
</svg>
